<svg xmlns="http://www.w3.org/2000/svg" width="321" height="100" viewBox="0 0 321 100" version="1.1"><path d="M 320.464 50 C 320.464 77.775, 320.592 89.138, 320.749 75.250 C 320.906 61.363, 320.906 38.638, 320.749 24.750 C 320.592 10.863, 320.464 22.225, 320.464 50 M 36.618 11.112 C 30.415 12.568, 21.335 17.913, 16.912 22.711 C 14.667 25.147, 11.405 30.147, 9.665 33.820 C 6.799 39.869, 6.500 41.402, 6.500 50.052 C 6.500 59.067, 6.710 60.028, 10.235 67.160 C 14.733 76.262, 20.523 81.931, 29.820 86.335 C 35.880 89.206, 37.381 89.498, 46 89.476 C 53.542 89.456, 56.464 89.011, 60.179 87.313 C 63.881 85.622, 64.753 84.771, 64.352 83.239 C 64.074 82.175, 64.556 79.606, 65.423 77.530 C 67.742 71.980, 67.476 71.786, 62.111 75.121 C 53.651 80.381, 44.695 81.354, 35.708 77.992 C 16.123 70.664, 9.813 46.262, 23.399 30.389 C 30.659 21.907, 44.316 17.875, 54.284 21.272 L 58.801 22.811 60.526 18.292 C 62.539 13.021, 62.246 12.655, 54.701 11.032 C 49.034 9.813, 42.019 9.844, 36.618 11.112 M 72.033 12.626 C 67.865 16.133, 64.948 22.107, 64.290 28.484 C 63.599 35.170, 65.281 40.223, 69.317 43.591 C 74.190 47.658, 74.926 49.708, 74.965 59.332 C 74.992 66.239, 74.451 69.755, 72.480 75.465 C 70.536 81.099, 70.182 83.349, 70.932 85.322 C 72.769 90.154, 78.015 91.349, 82.365 87.927 C 85.592 85.389, 85.725 82.411, 82.939 75.079 C 80.310 68.164, 79.228 54.277, 80.987 50.030 C 81.690 48.335, 83.561 46.024, 85.147 44.895 C 89.378 41.883, 91.001 37.966, 90.990 30.800 C 90.973 19.964, 84.593 10, 77.672 10 C 76.287 10, 73.749 11.182, 72.033 12.626 M 99 19.918 C 99 21.478, 99.634 22, 101.525 22 L 104.051 22 103.775 37.750 C 103.505 53.227, 103.461 53.506, 101.250 53.820 C 99.769 54.030, 99 54.826, 99 56.149 C 99 58.076, 99.536 58.145, 111.980 57.829 C 124.320 57.516, 125.085 57.375, 127.487 54.971 C 132.401 50.051, 132.415 41.629, 127.515 38.418 C 125.095 36.832, 125.093 36.816, 127.042 34.724 C 129.916 31.640, 129.688 24.912, 126.589 21.306 C 124.219 18.547, 123.965 18.494, 111.589 18.168 C 99.396 17.847, 99 17.902, 99 19.918 M 146 20 C 146 21.111, 146.667 22, 147.500 22 C 148.325 22, 148.995 22.337, 148.988 22.750 C 148.982 23.163, 146.384 30.250, 143.215 38.500 C 138.370 51.115, 137.100 53.551, 135.227 53.820 C 133.804 54.024, 133 54.836, 133 56.070 C 133 57.793, 133.751 58, 140 58 C 146.333 58, 147 57.810, 147 56 C 147 54.667, 146.333 54, 145 54 C 142.581 54, 142.529 53.217, 144.609 48.020 L 146.217 44 153.908 44 L 161.598 44 162.940 47.750 C 163.679 49.813, 164.492 52.063, 164.748 52.750 C 165.028 53.502, 164.374 54, 163.107 54 C 161.667 54, 161 54.633, 161 56 C 161 57.810, 161.667 58, 168 58 C 174.333 58, 175 57.810, 175 56 C 175 54.576, 174.333 54, 172.686 54 C 170.612 54, 169.712 52.261, 164.020 37.250 C 160.526 28.037, 157.237 19.938, 156.711 19.250 C 156.177 18.552, 153.603 18, 150.878 18 C 146.667 18, 146 18.273, 146 20 M 177 19.948 C 177 21.476, 177.645 22, 179.525 22 L 182.051 22 181.775 37.750 C 181.505 53.227, 181.461 53.506, 179.250 53.820 C 177.804 54.025, 177 54.829, 177 56.070 C 177 57.805, 177.757 58, 184.500 58 C 191.333 58, 192 57.822, 192 56 C 192 54.533, 191.333 54, 189.500 54 L 187 54 187.012 40.750 L 187.024 27.500 193.103 37 C 196.447 42.225, 200.829 49.084, 202.841 52.241 C 205.837 56.943, 206.998 57.984, 209.250 57.991 L 212 58 212 40 L 212 22 214.500 22 C 216.333 22, 217 21.467, 217 20 C 217 18.178, 216.333 18, 209.500 18 C 202.667 18, 202 18.178, 202 20 C 202 21.467, 202.667 22, 204.500 22 L 207 22 207 35.651 L 207 49.302 197.232 33.901 L 187.463 18.500 182.232 18.198 C 177.524 17.926, 177 18.101, 177 19.948 M 225 20 C 225 21.467, 225.667 22, 227.500 22 L 230 22 230 34.865 C 230 49.896, 228.957 52.325, 221.996 53.501 C 218.963 54.013, 218 54.637, 218 56.088 C 218 60.573, 229.663 57.241, 232.974 51.810 C 234.730 48.931, 234.993 46.776, 234.996 35.250 L 235 22 237.500 22 C 239.333 22, 240 21.467, 240 20 C 240 18.178, 239.333 18, 232.500 18 C 225.667 18, 225 18.178, 225 20 M 251 20 C 251 21.294, 251.667 22, 252.888 22 C 254.567 22, 254.108 23.775, 248.755 38 C 243.312 52.465, 242.507 54, 240.367 54 C 238.667 54, 238 54.563, 238 56 C 238 57.810, 238.667 58, 245 58 C 251.333 58, 252 57.810, 252 56 C 252 54.667, 251.333 54, 250 54 C 247.604 54, 247.636 54.424, 249.594 48.678 L 251.188 44 258.958 44 L 266.728 44 268.364 48.283 C 270.438 53.713, 270.419 54, 268 54 C 266.667 54, 266 54.667, 266 56 C 266 57.810, 266.667 58, 273 58 C 279.249 58, 280 57.793, 280 56.070 C 280 54.846, 279.197 54.022, 277.807 53.820 C 275.471 53.479, 275.713 53.987, 266.557 30.250 L 261.832 18 256.416 18 C 251.667 18, 251 18.246, 251 20 M 282 19.918 C 282 21.472, 282.634 22, 284.500 22 L 287 22 287 38 L 287 54 284.500 54 C 282.667 54, 282 54.533, 282 56 C 282 57.833, 282.667 58, 290 58 C 297.333 58, 298 57.833, 298 56 C 298 54.444, 297.333 54, 295 54 L 292 54 292 48 L 292 42 296.489 42 L 300.978 42 305 50 C 309.018 57.991, 309.027 58, 313.011 58 C 316.285 58, 317 57.654, 317 56.070 C 317 54.829, 316.196 54.025, 314.750 53.820 C 313.167 53.595, 311.568 51.746, 309.357 47.582 L 306.215 41.663 309.607 38.464 C 312.605 35.636, 313 34.669, 313 30.148 C 313 25.909, 312.500 24.471, 310.084 21.766 L 307.169 18.500 294.584 18.168 C 282.396 17.847, 282 17.902, 282 19.918 M 109 28.500 L 109 35 114.845 35 C 121.608 35, 124 33.231, 124 28.228 C 124 23.965, 120.932 22, 114.277 22 L 109 22 109 28.500 M 292 30.120 L 292 38.240 297.963 37.809 C 305.398 37.271, 308 35.226, 308 29.918 C 308 24.580, 304.534 22, 297.365 22 L 292 22 292 30.120 M 151.075 30.784 C 149.765 34.478, 148.489 38.063, 148.239 38.750 C 147.908 39.662, 149.423 40, 153.848 40 L 159.910 40 157.379 33.276 C 153.661 23.397, 153.691 23.409, 151.075 30.784 M 255.935 31.709 C 254.596 35.399, 253.350 38.774, 253.167 39.209 C 252.983 39.644, 255.619 40, 259.024 40 C 263.560 40, 265.088 39.666, 264.743 38.750 C 264.484 38.063, 263.251 34.688, 262.002 31.250 C 260.754 27.813, 259.426 25, 259.051 25 C 258.676 25, 257.274 28.019, 255.935 31.709 M 36.444 28.374 C 30.531 31.127, 24.804 37.372, 23.161 42.858 C 18.560 58.213, 30.478 74.031, 46.616 73.990 C 51.922 73.977, 59.830 70.097, 63.824 65.547 C 67.814 61.003, 69 58.125, 69 52.986 C 69 49.710, 68.443 48.677, 65.441 46.387 C 61.160 43.122, 59.011 39.233, 58.145 33.186 C 57.570 29.167, 57.120 28.541, 54 27.415 C 48.443 25.410, 42.061 25.758, 36.444 28.374 M 109 46.616 L 109 54.233 115.443 53.823 C 123.728 53.295, 126.222 51.309, 125.798 45.575 C 125.426 40.551, 122.875 39.036, 114.750 39.015 L 109 39 109 46.616 M 151.750 74.080 C 150.787 74.641, 150 76.198, 150 77.542 C 150 79.384, 150.922 80.418, 153.750 81.750 C 155.813 82.721, 157.500 84.181, 157.500 84.994 C 157.500 87.176, 154.140 87.437, 151.919 85.427 C 149.363 83.114, 148.170 84.426, 150.494 86.994 C 152.510 89.221, 156.948 89.652, 158.800 87.800 C 159.460 87.140, 160 85.529, 160 84.220 C 160 82.371, 159.106 81.488, 156 80.268 C 151.913 78.663, 150.783 76.404, 153.537 75.347 C 154.383 75.023, 155.913 75.516, 156.938 76.444 C 158.063 77.462, 159.045 77.735, 159.417 77.134 C 160.056 76.100, 156.334 72.977, 154.527 73.030 C 153.962 73.047, 152.713 73.519, 151.750 74.080 M 108 81.500 C 108 85.833, 108.422 89, 109 89 C 109.550 89, 110 87.650, 110 86 C 110 83.718, 110.455 83, 111.902 83 C 113.117 83, 114.182 84.085, 114.850 86 C 115.425 87.650, 116.369 89, 116.948 89 C 118.266 89, 118.261 88.667, 116.896 85.671 C 116.017 83.743, 116.134 82.725, 117.467 80.691 C 120.116 76.648, 118.136 74, 112.465 74 L 108 74 108 81.500 M 129 81.500 L 129 89 134 89 C 136.750 89, 139 88.550, 139 88 C 139 87.450, 137.425 87, 135.500 87 C 132.433 87, 132 86.690, 132 84.500 C 132 82.389, 132.467 82, 135 82 C 136.650 82, 138 81.550, 138 81 C 138 80.450, 136.650 80, 135 80 C 132.486 80, 132 79.604, 132 77.560 C 132 75.478, 132.549 75.063, 135.750 74.728 C 138.835 74.406, 138.569 74.306, 134.250 74.168 L 129 74 129 81.500 M 171.250 74.716 C 173.946 75.125, 174 75.270, 174 82.066 C 174 86.022, 174.429 89, 175 89 C 175.571 89, 176 86.022, 176 82.066 C 176 75.270, 176.054 75.125, 178.750 74.716 C 180.262 74.487, 178.575 74.300, 175 74.300 C 171.425 74.300, 169.738 74.487, 171.250 74.716 M 193.512 74.981 C 192.696 76.301, 189 87.094, 189 88.157 C 189 89.826, 190.879 88.957, 191.500 87 C 192.403 84.154, 197.293 84.311, 199.269 87.250 C 201.939 91.221, 201.956 88.651, 199.309 81.225 C 196.935 74.565, 195.034 72.518, 193.512 74.981 M 211.015 78.750 C 211.035 85.301, 212.786 88.426, 216.647 88.804 C 221.344 89.264, 223 86.951, 223 79.929 C 223 72.377, 221.198 72.146, 220.800 79.646 C 220.484 85.590, 218.790 87.901, 215.636 86.691 C 214.372 86.205, 214 84.693, 214 80.031 C 214 75.337, 213.668 74, 212.500 74 C 211.375 74, 211.004 75.188, 211.015 78.750 M 234 81.500 C 234 85.833, 234.422 89, 235 89 C 235.550 89, 236 87.650, 236 86 C 236 83.731, 236.458 83, 237.879 83 C 239.023 83, 240.243 84.172, 241 86 C 241.683 87.650, 242.875 89, 243.647 89 C 244.811 89, 244.778 88.471, 243.453 85.909 C 241.973 83.047, 241.983 82.677, 243.586 80.905 C 245.006 79.336, 245.113 78.542, 244.180 76.496 C 243.212 74.370, 242.372 74, 238.521 74 L 234 74 234 81.500 M 259.310 75.750 C 258.966 76.713, 257.855 79.654, 256.842 82.287 C 255.829 84.920, 255 87.507, 255 88.037 C 255 89.800, 256.856 89.030, 257.500 87 C 258.281 84.540, 265 84.039, 265 86.441 C 265 87.948, 266.797 89.537, 267.596 88.737 C 267.851 88.483, 266.869 85.062, 265.414 81.137 C 262.796 74.074, 260.604 72.139, 259.310 75.750 M 278 81.500 C 278 87.500, 278.300 89, 279.500 89 C 280.658 89, 281.003 87.689, 281.011 83.250 L 281.023 77.500 284.761 83.237 C 289.875 91.082, 291 90.769, 291 81.500 C 291 77.167, 290.578 74, 290 74 C 289.450 74, 289 76.250, 289 79 C 289 81.750, 288.663 83.992, 288.250 83.982 C 287.837 83.972, 286.034 81.722, 284.242 78.982 C 279.472 71.686, 278 72.280, 278 81.500 M 302.750 74.706 C 304.825 75.105, 305 75.677, 305 82.070 C 305 87.563, 305.311 89, 306.500 89 C 307.689 89, 308 87.563, 308 82.070 C 308 75.677, 308.175 75.105, 310.250 74.706 C 311.488 74.467, 309.800 74.272, 306.500 74.272 C 303.200 74.272, 301.512 74.467, 302.750 74.706 M 110.667 75.667 C 110.300 76.033, 110 77.413, 110 78.733 C 110 80.759, 110.427 81.084, 112.741 80.816 C 114.477 80.616, 115.614 79.810, 115.840 78.620 C 116.338 75.996, 112.518 73.815, 110.667 75.667 M 236.667 75.667 C 236.300 76.033, 236 77.413, 236 78.733 C 236 80.759, 236.427 81.084, 238.741 80.816 C 240.477 80.616, 241.614 79.810, 241.840 78.620 C 242.338 75.996, 238.518 73.815, 236.667 75.667 M 194.110 79.315 C 192.662 82.987, 192.665 83, 195 83 C 197.110 83, 197.389 81.793, 196.040 78.500 C 195.278 76.642, 195.142 76.699, 194.110 79.315 M 260.150 80 C 259.177 82.790, 259.272 83, 261.500 83 C 263.728 83, 263.823 82.790, 262.850 80 C 262.275 78.350, 261.667 77, 261.500 77 C 261.333 77, 260.725 78.350, 260.150 80" stroke="none" fill="#e5d2b6" fill-rule="evenodd"/><path d="M 0 50 L 0 100 160 100 L 320 100 320 50 L 320 0 160 0 L 0 0 0 50 M 36.618 11.112 C 30.415 12.568, 21.335 17.913, 16.912 22.711 C 14.667 25.147, 11.405 30.147, 9.665 33.820 C 6.799 39.869, 6.500 41.402, 6.500 50.052 C 6.500 59.067, 6.710 60.028, 10.235 67.160 C 14.733 76.262, 20.523 81.931, 29.820 86.335 C 35.880 89.206, 37.381 89.498, 46 89.476 C 53.542 89.456, 56.464 89.011, 60.179 87.313 C 63.881 85.622, 64.753 84.771, 64.352 83.239 C 64.074 82.175, 64.556 79.606, 65.423 77.530 C 67.742 71.980, 67.476 71.786, 62.111 75.121 C 53.651 80.381, 44.695 81.354, 35.708 77.992 C 16.123 70.664, 9.813 46.262, 23.399 30.389 C 30.659 21.907, 44.316 17.875, 54.284 21.272 L 58.801 22.811 60.526 18.292 C 62.539 13.021, 62.246 12.655, 54.701 11.032 C 49.034 9.813, 42.019 9.844, 36.618 11.112 M 72.033 12.626 C 67.865 16.133, 64.948 22.107, 64.290 28.484 C 63.599 35.170, 65.281 40.223, 69.317 43.591 C 74.190 47.658, 74.926 49.708, 74.965 59.332 C 74.992 66.239, 74.451 69.755, 72.480 75.465 C 70.536 81.099, 70.182 83.349, 70.932 85.322 C 72.769 90.154, 78.015 91.349, 82.365 87.927 C 85.592 85.389, 85.725 82.411, 82.939 75.079 C 80.310 68.164, 79.228 54.277, 80.987 50.030 C 81.690 48.335, 83.561 46.024, 85.147 44.895 C 89.378 41.883, 91.001 37.966, 90.990 30.800 C 90.973 19.964, 84.593 10, 77.672 10 C 76.287 10, 73.749 11.182, 72.033 12.626 M 99 19.918 C 99 21.478, 99.634 22, 101.525 22 L 104.051 22 103.775 37.750 C 103.505 53.227, 103.461 53.506, 101.250 53.820 C 99.769 54.030, 99 54.826, 99 56.149 C 99 58.076, 99.536 58.145, 111.980 57.829 C 124.320 57.516, 125.085 57.375, 127.487 54.971 C 132.401 50.051, 132.415 41.629, 127.515 38.418 C 125.095 36.832, 125.093 36.816, 127.042 34.724 C 129.916 31.640, 129.688 24.912, 126.589 21.306 C 124.219 18.547, 123.965 18.494, 111.589 18.168 C 99.396 17.847, 99 17.902, 99 19.918 M 146 20 C 146 21.111, 146.667 22, 147.500 22 C 148.325 22, 148.995 22.337, 148.988 22.750 C 148.982 23.163, 146.384 30.250, 143.215 38.500 C 138.370 51.115, 137.100 53.551, 135.227 53.820 C 133.804 54.024, 133 54.836, 133 56.070 C 133 57.793, 133.751 58, 140 58 C 146.333 58, 147 57.810, 147 56 C 147 54.667, 146.333 54, 145 54 C 142.581 54, 142.529 53.217, 144.609 48.020 L 146.217 44 153.908 44 L 161.598 44 162.940 47.750 C 163.679 49.813, 164.492 52.063, 164.748 52.750 C 165.028 53.502, 164.374 54, 163.107 54 C 161.667 54, 161 54.633, 161 56 C 161 57.810, 161.667 58, 168 58 C 174.333 58, 175 57.810, 175 56 C 175 54.576, 174.333 54, 172.686 54 C 170.612 54, 169.712 52.261, 164.020 37.250 C 160.526 28.037, 157.237 19.938, 156.711 19.250 C 156.177 18.552, 153.603 18, 150.878 18 C 146.667 18, 146 18.273, 146 20 M 177 19.948 C 177 21.476, 177.645 22, 179.525 22 L 182.051 22 181.775 37.750 C 181.505 53.227, 181.461 53.506, 179.250 53.820 C 177.804 54.025, 177 54.829, 177 56.070 C 177 57.805, 177.757 58, 184.500 58 C 191.333 58, 192 57.822, 192 56 C 192 54.533, 191.333 54, 189.500 54 L 187 54 187.012 40.750 L 187.024 27.500 193.103 37 C 196.447 42.225, 200.829 49.084, 202.841 52.241 C 205.837 56.943, 206.998 57.984, 209.250 57.991 L 212 58 212 40 L 212 22 214.500 22 C 216.333 22, 217 21.467, 217 20 C 217 18.178, 216.333 18, 209.500 18 C 202.667 18, 202 18.178, 202 20 C 202 21.467, 202.667 22, 204.500 22 L 207 22 207 35.651 L 207 49.302 197.232 33.901 L 187.463 18.500 182.232 18.198 C 177.524 17.926, 177 18.101, 177 19.948 M 225 20 C 225 21.467, 225.667 22, 227.500 22 L 230 22 230 34.865 C 230 49.896, 228.957 52.325, 221.996 53.501 C 218.963 54.013, 218 54.637, 218 56.088 C 218 60.573, 229.663 57.241, 232.974 51.810 C 234.730 48.931, 234.993 46.776, 234.996 35.250 L 235 22 237.500 22 C 239.333 22, 240 21.467, 240 20 C 240 18.178, 239.333 18, 232.500 18 C 225.667 18, 225 18.178, 225 20 M 251 20 C 251 21.294, 251.667 22, 252.888 22 C 254.567 22, 254.108 23.775, 248.755 38 C 243.312 52.465, 242.507 54, 240.367 54 C 238.667 54, 238 54.563, 238 56 C 238 57.810, 238.667 58, 245 58 C 251.333 58, 252 57.810, 252 56 C 252 54.667, 251.333 54, 250 54 C 247.604 54, 247.636 54.424, 249.594 48.678 L 251.188 44 258.958 44 L 266.728 44 268.364 48.283 C 270.438 53.713, 270.419 54, 268 54 C 266.667 54, 266 54.667, 266 56 C 266 57.810, 266.667 58, 273 58 C 279.249 58, 280 57.793, 280 56.070 C 280 54.846, 279.197 54.022, 277.807 53.820 C 275.471 53.479, 275.713 53.987, 266.557 30.250 L 261.832 18 256.416 18 C 251.667 18, 251 18.246, 251 20 M 282 19.918 C 282 21.472, 282.634 22, 284.500 22 L 287 22 287 38 L 287 54 284.500 54 C 282.667 54, 282 54.533, 282 56 C 282 57.833, 282.667 58, 290 58 C 297.333 58, 298 57.833, 298 56 C 298 54.444, 297.333 54, 295 54 L 292 54 292 48 L 292 42 296.489 42 L 300.978 42 305 50 C 309.018 57.991, 309.027 58, 313.011 58 C 316.285 58, 317 57.654, 317 56.070 C 317 54.829, 316.196 54.025, 314.750 53.820 C 313.167 53.595, 311.568 51.746, 309.357 47.582 L 306.215 41.663 309.607 38.464 C 312.605 35.636, 313 34.669, 313 30.148 C 313 25.909, 312.500 24.471, 310.084 21.766 L 307.169 18.500 294.584 18.168 C 282.396 17.847, 282 17.902, 282 19.918 M 109 28.500 L 109 35 114.845 35 C 121.608 35, 124 33.231, 124 28.228 C 124 23.965, 120.932 22, 114.277 22 L 109 22 109 28.500 M 292 30.120 L 292 38.240 297.963 37.809 C 305.398 37.271, 308 35.226, 308 29.918 C 308 24.580, 304.534 22, 297.365 22 L 292 22 292 30.120 M 151.075 30.784 C 149.765 34.478, 148.489 38.063, 148.239 38.750 C 147.908 39.662, 149.423 40, 153.848 40 L 159.910 40 157.379 33.276 C 153.661 23.397, 153.691 23.409, 151.075 30.784 M 255.935 31.709 C 254.596 35.399, 253.350 38.774, 253.167 39.209 C 252.983 39.644, 255.619 40, 259.024 40 C 263.560 40, 265.088 39.666, 264.743 38.750 C 264.484 38.063, 263.251 34.688, 262.002 31.250 C 260.754 27.813, 259.426 25, 259.051 25 C 258.676 25, 257.274 28.019, 255.935 31.709 M 36.444 28.374 C 30.531 31.127, 24.804 37.372, 23.161 42.858 C 18.560 58.213, 30.478 74.031, 46.616 73.990 C 51.922 73.977, 59.830 70.097, 63.824 65.547 C 67.814 61.003, 69 58.125, 69 52.986 C 69 49.710, 68.443 48.677, 65.441 46.387 C 61.160 43.122, 59.011 39.233, 58.145 33.186 C 57.570 29.167, 57.120 28.541, 54 27.415 C 48.443 25.410, 42.061 25.758, 36.444 28.374 M 109 46.616 L 109 54.233 115.443 53.823 C 123.728 53.295, 126.222 51.309, 125.798 45.575 C 125.426 40.551, 122.875 39.036, 114.750 39.015 L 109 39 109 46.616 M 151.750 74.080 C 150.787 74.641, 150 76.198, 150 77.542 C 150 79.384, 150.922 80.418, 153.750 81.750 C 155.813 82.721, 157.500 84.181, 157.500 84.994 C 157.500 87.176, 154.140 87.437, 151.919 85.427 C 149.363 83.114, 148.170 84.426, 150.494 86.994 C 152.510 89.221, 156.948 89.652, 158.800 87.800 C 159.460 87.140, 160 85.529, 160 84.220 C 160 82.371, 159.106 81.488, 156 80.268 C 151.913 78.663, 150.783 76.404, 153.537 75.347 C 154.383 75.023, 155.913 75.516, 156.938 76.444 C 158.063 77.462, 159.045 77.735, 159.417 77.134 C 160.056 76.100, 156.334 72.977, 154.527 73.030 C 153.962 73.047, 152.713 73.519, 151.750 74.080 M 108 81.500 C 108 85.833, 108.422 89, 109 89 C 109.550 89, 110 87.650, 110 86 C 110 83.718, 110.455 83, 111.902 83 C 113.117 83, 114.182 84.085, 114.850 86 C 115.425 87.650, 116.369 89, 116.948 89 C 118.266 89, 118.261 88.667, 116.896 85.671 C 116.017 83.743, 116.134 82.725, 117.467 80.691 C 120.116 76.648, 118.136 74, 112.465 74 L 108 74 108 81.500 M 129 81.500 L 129 89 134 89 C 136.750 89, 139 88.550, 139 88 C 139 87.450, 137.425 87, 135.500 87 C 132.433 87, 132 86.690, 132 84.500 C 132 82.389, 132.467 82, 135 82 C 136.650 82, 138 81.550, 138 81 C 138 80.450, 136.650 80, 135 80 C 132.486 80, 132 79.604, 132 77.560 C 132 75.478, 132.549 75.063, 135.750 74.728 C 138.835 74.406, 138.569 74.306, 134.250 74.168 L 129 74 129 81.500 M 171.250 74.716 C 173.946 75.125, 174 75.270, 174 82.066 C 174 86.022, 174.429 89, 175 89 C 175.571 89, 176 86.022, 176 82.066 C 176 75.270, 176.054 75.125, 178.750 74.716 C 180.262 74.487, 178.575 74.300, 175 74.300 C 171.425 74.300, 169.738 74.487, 171.250 74.716 M 193.512 74.981 C 192.696 76.301, 189 87.094, 189 88.157 C 189 89.826, 190.879 88.957, 191.500 87 C 192.403 84.154, 197.293 84.311, 199.269 87.250 C 201.939 91.221, 201.956 88.651, 199.309 81.225 C 196.935 74.565, 195.034 72.518, 193.512 74.981 M 211.015 78.750 C 211.035 85.301, 212.786 88.426, 216.647 88.804 C 221.344 89.264, 223 86.951, 223 79.929 C 223 72.377, 221.198 72.146, 220.800 79.646 C 220.484 85.590, 218.790 87.901, 215.636 86.691 C 214.372 86.205, 214 84.693, 214 80.031 C 214 75.337, 213.668 74, 212.500 74 C 211.375 74, 211.004 75.188, 211.015 78.750 M 234 81.500 C 234 85.833, 234.422 89, 235 89 C 235.550 89, 236 87.650, 236 86 C 236 83.731, 236.458 83, 237.879 83 C 239.023 83, 240.243 84.172, 241 86 C 241.683 87.650, 242.875 89, 243.647 89 C 244.811 89, 244.778 88.471, 243.453 85.909 C 241.973 83.047, 241.983 82.677, 243.586 80.905 C 245.006 79.336, 245.113 78.542, 244.180 76.496 C 243.212 74.370, 242.372 74, 238.521 74 L 234 74 234 81.500 M 259.310 75.750 C 258.966 76.713, 257.855 79.654, 256.842 82.287 C 255.829 84.920, 255 87.507, 255 88.037 C 255 89.800, 256.856 89.030, 257.500 87 C 258.281 84.540, 265 84.039, 265 86.441 C 265 87.948, 266.797 89.537, 267.596 88.737 C 267.851 88.483, 266.869 85.062, 265.414 81.137 C 262.796 74.074, 260.604 72.139, 259.310 75.750 M 278 81.500 C 278 87.500, 278.300 89, 279.500 89 C 280.658 89, 281.003 87.689, 281.011 83.250 L 281.023 77.500 284.761 83.237 C 289.875 91.082, 291 90.769, 291 81.500 C 291 77.167, 290.578 74, 290 74 C 289.450 74, 289 76.250, 289 79 C 289 81.750, 288.663 83.992, 288.250 83.982 C 287.837 83.972, 286.034 81.722, 284.242 78.982 C 279.472 71.686, 278 72.280, 278 81.500 M 302.750 74.706 C 304.825 75.105, 305 75.677, 305 82.070 C 305 87.563, 305.311 89, 306.500 89 C 307.689 89, 308 87.563, 308 82.070 C 308 75.677, 308.175 75.105, 310.250 74.706 C 311.488 74.467, 309.800 74.272, 306.500 74.272 C 303.200 74.272, 301.512 74.467, 302.750 74.706 M 110.667 75.667 C 110.300 76.033, 110 77.413, 110 78.733 C 110 80.759, 110.427 81.084, 112.741 80.816 C 114.477 80.616, 115.614 79.810, 115.840 78.620 C 116.338 75.996, 112.518 73.815, 110.667 75.667 M 236.667 75.667 C 236.300 76.033, 236 77.413, 236 78.733 C 236 80.759, 236.427 81.084, 238.741 80.816 C 240.477 80.616, 241.614 79.810, 241.840 78.620 C 242.338 75.996, 238.518 73.815, 236.667 75.667 M 194.110 79.315 C 192.662 82.987, 192.665 83, 195 83 C 197.110 83, 197.389 81.793, 196.040 78.500 C 195.278 76.642, 195.142 76.699, 194.110 79.315 M 260.150 80 C 259.177 82.790, 259.272 83, 261.500 83 C 263.728 83, 263.823 82.790, 262.850 80 C 262.275 78.350, 261.667 77, 261.500 77 C 261.333 77, 260.725 78.350, 260.150 80" stroke="none" fill="#060606" fill-rule="evenodd"/></svg>